<svg xmlns="http://www.w3.org/2000/svg" id="White_logo" data-name="White logo" viewBox="0 0 120 33.108">
    <defs>
        <style>
            .cls-1{fill:#fff}
        </style>
    </defs>
    <g id="XMLID_2_">
        <g id="XMLID_8_" transform="translate(43.2 9.108)">
            <path id="XMLID_23_" d="M78.815 28.954v.862H70.2V15.6h8.554v.862h-7.508v5.785h6.277v.862h-6.277v5.969h7.569z" class="cls-1" transform="translate(-70.2 -15.108)"/>
            <path id="XMLID_21_" d="M97.377 16.462h-4.985v13.415h-1.046V16.462H86.3V15.6h11.077z" class="cls-1" transform="translate(-76.392 -15.108)"/>
            <path id="XMLID_19_" d="M119.215 15.6v14.277h-1.046v-6.892h-8.923v6.831H108.2V15.6h1.046v6.646h8.923V15.6z" class="cls-1" transform="translate(-84.815 -15.108)"/>
            <path id="XMLID_17_" d="M140.715 28.954v.862H132.9V15.6h1.046v13.415h6.769z" class="cls-1" transform="translate(-94.315 -15.108)"/>
            <path id="XMLID_14_" d="M147.123 26.862v.185a6.385 6.385 0 0 0 .246 1.969 4.393 4.393 0 0 0 .738 1.415 3.214 3.214 0 0 0 1.169.862 4.031 4.031 0 0 0 1.538.308 4.091 4.091 0 0 0 1.292-.185 7.161 7.161 0 0 0 .923-.369 5.412 5.412 0 0 0 .615-.369.562.562 0 0 1 .308-.185c.062 0 .185.062.185.123l.246.308a5.548 5.548 0 0 1-.615.554 3.759 3.759 0 0 1-.862.431 5.2 5.2 0 0 1-1.046.308 6.782 6.782 0 0 1-1.108.123 4.5 4.5 0 0 1-1.846-.369 4.965 4.965 0 0 1-1.477-1.046 4.006 4.006 0 0 1-.923-1.662 7.442 7.442 0 0 1 0-4.246 5.024 5.024 0 0 1 .862-1.6 4.046 4.046 0 0 1 1.415-1.046 4.715 4.715 0 0 1 3.508-.062 2.973 2.973 0 0 1 1.231.862 5.083 5.083 0 0 1 .862 1.354 5.8 5.8 0 0 1 .308 1.846.461.461 0 0 1-.062.308.226.226 0 0 1-.185.062h-7.323zm6.708-.615a3.724 3.724 0 0 0-.246-1.477 3.226 3.226 0 0 0-.615-1.108 2.812 2.812 0 0 0-.985-.677 2.755 2.755 0 0 0-1.231-.246 3.61 3.61 0 0 0-1.415.246 3.071 3.071 0 0 0-1.046.677 3.492 3.492 0 0 0-.738 1.108 5.323 5.323 0 0 0-.369 1.415h6.646z" class="cls-1" transform="translate(-99.431 -17.569)"/>
            <path id="XMLID_12_" d="M165.185 24.069a6.96 6.96 0 0 1 1.6-1.415 3.873 3.873 0 0 1 2.031-.554 3.724 3.724 0 0 1 1.477.246 3.218 3.218 0 0 1 1.046.738 3.529 3.529 0 0 1 .615 1.169 6.351 6.351 0 0 1 .185 1.6v6.4h-.985v-6.338a3.506 3.506 0 0 0-.615-2.215 2.348 2.348 0 0 0-1.969-.8 3.759 3.759 0 0 0-1.846.492 5.466 5.466 0 0 0-1.538 1.415v7.569h-.986V22.285h.554c.185 0 .246.062.308.246z" class="cls-1" transform="translate(-106.354 -17.608)"/>
            <path id="XMLID_9_" d="M189.731 14.862v14.646h-.554c-.185 0-.246-.062-.308-.246l-.123-1.6a4.752 4.752 0 0 1-1.538 1.415 3.661 3.661 0 0 1-1.969.554 3.49 3.49 0 0 1-2.892-1.292 6.126 6.126 0 0 1-1.046-3.815 7.028 7.028 0 0 1 .308-2.031 5.336 5.336 0 0 1 .862-1.662 3.376 3.376 0 0 1 1.354-1.108 4.523 4.523 0 0 1 1.846-.431 4.017 4.017 0 0 1 1.785.369 3.664 3.664 0 0 1 1.292 1.108V14.8h.985zm-.985 6.769a3.5 3.5 0 0 0-1.292-1.231 3.407 3.407 0 0 0-1.6-.369 3.8 3.8 0 0 0-1.538.308 2.634 2.634 0 0 0-1.108.923 3.373 3.373 0 0 0-.677 1.415 8.322 8.322 0 0 0-.246 1.785 5.2 5.2 0 0 0 .8 3.262 2.942 2.942 0 0 0 2.4 1.046 3.53 3.53 0 0 0 1.785-.492 4.44 4.44 0 0 0 1.415-1.415v-5.232z" class="cls-1" transform="translate(-112.931 -14.8)"/>
        </g>
        <g id="Group_53" data-name="Group 53">
            <path id="XMLID_3_" d="M16.554 0a16.554 16.554 0 1 0 16.554 16.554A16.6 16.6 0 0 0 16.554 0zm-5.292 28.677l-2.031-2.031 4.8-4.8-4.8-4.738 2.031-2.031 6.831 6.831zm7.692-7.692l-6.831-6.831 2.031-2.031 6.831 6.831zm4.923-4.923l-2.031 2.031-6.769-6.831 6.769-6.769 2.031 2.031-4.8 4.8z" class="cls-1"/>
        </g>
    </g>
</svg>
